<?xml version="1.0" standalone="no"?>
<!DOCTYPE svg PUBLIC "-//W3C//DTD SVG 20010904//EN"
 "http://www.w3.org/TR/2001/REC-SVG-20010904/DTD/svg10.dtd">
<svg version="1.0" xmlns="http://www.w3.org/2000/svg"
 width="1006.000000pt" height="1006.000000pt" viewBox="0 0 1006.000000 1006.000000"
 preserveAspectRatio="xMidYMid meet">
<metadata>
Created by potrace 1.14, written by Peter Selinger 2001-2017
</metadata>
<g transform="translate(0.000000,1006.000000) scale(0.100000,-0.100000)"
fill="#000000" stroke="none">
<path d="M4820 9969 c-1587 -59 -3072 -890 -3957 -2215 -423 -633 -694 -1354
-787 -2094 -49 -388 -51 -840 -5 -1230 139 -1194 759 -2347 1690 -3143 726
-620 1609 -1021 2544 -1156 276 -40 382 -46 745 -45 302 0 382 4 539 23 644
77 1159 230 1706 505 856 431 1552 1076 2050 1901 90 149 268 510 334 675 187
468 298 939 341 1450 15 181 13 626 -5 822 -54 607 -209 1166 -476 1713 -244
502 -546 924 -953 1331 -410 410 -828 708 -1351 964 -743 364 -1553 531 -2415
499z m542 -150 c1201 -82 2298 -583 3141 -1432 1060 -1069 1550 -2553 1336
-4047 -124 -871 -489 -1683 -1070 -2385 -111 -134 -456 -478 -599 -597 -656
-545 -1413 -901 -2238 -1053 -1243 -230 -2523 25 -3572 713 -1611 1055 -2429
2924 -2110 4818 52 311 159 692 270 959 23 55 49 118 58 140 8 22 49 107 89
189 326 658 763 1199 1339 1657 759 602 1693 965 2674 1038 168 12 506 13 682
0z"/>
<path d="M4670 9660 c-503 -42 -1019 -166 -1462 -352 -149 -62 -469 -224 -593
-298 -1213 -733 -2019 -1929 -2224 -3300 -37 -252 -46 -379 -45 -690 0 -392
25 -635 103 -990 278 -1264 1088 -2363 2226 -3020 1367 -789 3065 -838 4478
-129 743 373 1364 925 1822 1619 868 1317 996 3010 335 4447 -231 504 -528
931 -925 1329 -189 190 -269 263 -424 385 -698 549 -1503 878 -2411 985 -157
18 -717 27 -880 14z m699 -350 c127 -21 189 -81 210 -204 17 -98 -7 -177 -78
-258 l-37 -41 71 -71 c62 -61 74 -78 85 -125 27 -116 -2 -233 -79 -314 -90
-96 -152 -107 -603 -107 l-356 0 -6 73 c-7 79 -46 960 -46 1020 l0 37 388 0
c218 0 415 -5 451 -10z m816 -137 c94 -30 172 -57 174 -59 6 -5 -5 -36 -141
-398 -107 -286 -121 -343 -98 -386 13 -25 64 -55 127 -75 65 -21 111 -9 147
38 14 18 78 163 144 322 66 160 129 311 141 337 l20 47 173 -75 c95 -42 177
-80 182 -85 9 -8 -204 -555 -265 -681 -78 -160 -171 -236 -311 -253 -138 -17
-435 74 -595 183 -110 75 -167 158 -179 265 -11 95 5 148 201 682 36 99 68
186 70 194 3 8 12 10 23 6 9 -4 94 -32 187 -62z m-2262 -18 c169 -36 279 -148
306 -311 12 -79 -2 -153 -44 -230 l-33 -61 200 -184 c109 -101 195 -185 191
-186 -4 -1 -92 -21 -195 -43 l-187 -41 -148 119 c-81 65 -153 121 -159 125
-14 8 -130 -38 -127 -51 1 -5 32 -74 68 -152 36 -78 65 -143 65 -145 0 -1 -23
-12 -50 -24 -28 -12 -101 -46 -164 -75 -62 -30 -122 -56 -132 -60 -17 -4 -31
24 -111 217 -51 122 -146 351 -213 509 -66 158 -121 297 -122 309 -3 20 20 32
242 126 352 148 364 153 428 162 85 13 110 12 185 -4z m3649 -689 c247 -48
450 -227 529 -469 12 -37 20 -69 18 -70 -19 -15 -220 -127 -227 -127 -5 0 -12
16 -15 35 -10 60 -67 162 -117 209 -64 60 -122 88 -196 94 -55 4 -71 1 -128
-26 -128 -60 -211 -175 -211 -292 0 -155 124 -283 312 -322 l60 -13 -64 -102
c-73 -117 -70 -115 -179 -82 -108 33 -202 87 -281 162 -135 129 -186 242 -187
422 0 87 4 124 22 180 64 205 226 351 442 401 74 17 134 17 222 0z m-4871
-172 c156 -97 390 -242 519 -322 129 -80 239 -148 243 -152 9 -8 -278 -200
-300 -200 -9 0 -62 25 -119 55 -65 35 -109 53 -117 48 -32 -20 -277 -236 -277
-244 0 -6 20 -58 45 -117 25 -58 45 -111 45 -117 0 -11 -245 -288 -259 -293
-5 -1 -119 257 -255 574 -203 474 -245 579 -234 590 18 17 421 354 424 354 1
0 130 -79 285 -176z m2699 -408 c692 -95 1321 -421 1767 -916 406 -450 652
-980 727 -1570 73 -574 -34 -1162 -305 -1679 -273 -520 -729 -965 -1266 -1235
-138 -69 -354 -151 -518 -195 -495 -136 -987 -143 -1484 -20 -220 54 -381 113
-586 214 -455 224 -851 571 -1129 990 -66 100 -91 142 -168 285 -74 137 -163
375 -213 564 -338 1288 256 2622 1448 3255 300 159 677 274 1017 310 58 6 121
13 140 15 73 9 470 -4 570 -18z m3080 -231 c56 -73 99 -138 96 -144 -4 -6 -79
-63 -167 -128 l-160 -118 38 -6 c21 -4 138 -17 261 -30 l222 -23 90 -165 c49
-90 87 -167 85 -170 -3 -2 -139 5 -303 17 -236 18 -299 20 -305 10 -4 -7 -39
-69 -78 -138 -39 -69 -92 -163 -119 -210 -26 -47 -71 -127 -100 -178 l-52 -94
-24 35 c-13 19 -58 99 -99 178 -63 119 -74 147 -66 164 6 11 58 112 116 224
57 113 103 206 101 208 -1 2 -80 -53 -174 -122 -94 -69 -175 -125 -180 -125
-11 0 -215 270 -216 286 -1 11 175 144 789 595 83 61 123 85 131 78 6 -5 57
-70 114 -144z m-6728 9 c62 -36 116 -68 119 -72 4 -4 -33 -70 -81 -147 -68
-107 -86 -143 -77 -151 7 -7 154 -104 327 -216 173 -111 326 -211 338 -220
l24 -16 -93 -151 -92 -151 -46 27 c-25 15 -187 113 -359 219 l-313 193 -23
-37 c-13 -20 -49 -78 -80 -129 -31 -51 -61 -95 -67 -99 -16 -9 -241 144 -233
159 7 11 53 86 302 487 57 91 98 156 209 333 13 20 25 37 28 37 2 0 55 -30
117 -66z m-622 -1108 c47 -33 87 -61 88 -62 2 -1 -24 -31 -57 -65 -85 -86
-123 -167 -129 -269 -4 -78 -4 -79 27 -111 25 -25 37 -30 58 -24 43 10 81 43
109 93 84 149 113 192 158 241 75 79 132 105 231 105 229 0 365 -151 365 -405
0 -162 -36 -282 -123 -416 -44 -69 -162 -193 -182 -193 -19 0 -227 132 -218
139 134 110 208 200 239 293 33 100 0 198 -67 198 -43 0 -90 -49 -144 -152
-58 -108 -144 -202 -220 -238 -72 -35 -187 -34 -265 2 -144 67 -230 211 -230
388 0 68 26 196 54 268 44 112 181 292 209 276 7 -4 50 -35 97 -68z m7834 -43
c108 -38 190 -115 249 -235 72 -147 100 -317 77 -467 l-12 -80 -112 6 c-61 3
-113 7 -115 9 -2 2 2 37 9 78 18 109 9 211 -25 281 -48 99 -127 123 -173 55
-24 -34 -24 -38 -18 -200 5 -125 3 -177 -8 -216 -45 -170 -158 -250 -338 -242
-101 4 -172 34 -237 99 -164 165 -245 429 -196 637 8 35 22 76 30 92 l16 30
119 0 119 0 -13 -37 c-25 -72 -39 -175 -33 -244 11 -130 84 -230 157 -214 58
13 65 38 65 240 0 177 0 181 29 242 73 158 241 226 410 166z m-7579 -2053 c26
-63 56 -136 67 -162 l20 -48 178 -2 179 -3 -117 -93 c-64 -51 -127 -101 -139
-111 l-23 -19 51 -167 c27 -92 49 -169 47 -170 -3 -3 -123 68 -284 166 l-31
19 -154 -94 c-85 -52 -156 -93 -158 -91 -1 2 18 74 43 159 25 86 46 162 46
170 0 8 -62 63 -137 123 l-138 108 181 3 181 2 48 123 c60 151 86 210 90 205
2 -2 24 -55 50 -118z m7414 -60 l59 -145 182 -3 182 -2 -139 -111 c-76 -61
-139 -112 -141 -114 -2 -2 20 -78 47 -171 28 -92 49 -169 48 -171 -2 -1 -74
40 -159 92 l-156 96 -154 -95 c-84 -52 -154 -90 -156 -86 -2 5 17 78 42 162
25 84 46 158 46 164 0 6 -62 60 -137 120 l-138 109 180 3 180 3 49 122 c85
211 87 215 97 192 5 -11 36 -85 68 -165z m-6270 -1432 c90 -27 161 -70 238
-142 95 -88 181 -225 199 -316 6 -29 5 -30 -107 -85 l-113 -55 -12 40 c-29 98
-113 192 -211 237 -142 65 -328 -16 -400 -175 -34 -73 -38 -186 -8 -247 45
-93 191 -187 312 -202 l62 -8 -53 -105 c-62 -123 -64 -124 -199 -91 -118 30
-216 83 -303 164 -124 115 -184 257 -184 432 0 294 182 517 465 571 89 17 226
9 314 -18z m5120 -183 c0 -5 -81 -81 -179 -168 l-179 -159 57 -69 c31 -38 59
-69 63 -69 4 0 74 57 155 126 82 69 154 128 161 131 12 5 35 -18 117 -119 l46
-57 -157 -131 c-87 -72 -159 -135 -161 -139 -2 -6 83 -117 118 -155 8 -8 96
64 346 281 l62 53 81 -97 c44 -54 81 -101 81 -104 0 -9 -690 -589 -700 -589
-4 0 -31 32 -61 72 -56 75 -218 283 -449 579 -74 95 -145 187 -157 205 l-22
32 102 83 c108 89 279 239 436 382 l93 85 74 -81 c40 -45 73 -86 73 -92z
m-4261 -465 c133 -37 229 -99 325 -209 98 -113 137 -220 137 -376 0 -50 -7
-118 -15 -150 -59 -228 -240 -396 -476 -443 -237 -46 -523 76 -652 279 -64
101 -90 182 -95 299 -7 178 45 316 168 439 94 94 202 153 335 181 58 13 189 3
273 -20z m3430 -74 c23 -51 42 -99 42 -105 0 -9 -402 -211 -421 -211 -13 0
-12 -5 27 -96 21 -48 42 -83 48 -80 6 2 92 41 190 85 99 45 181 81 183 81 4 0
77 -154 93 -196 8 -20 -4 -28 -178 -104 -103 -46 -190 -86 -194 -89 -5 -5 63
-176 76 -188 1 -2 106 44 232 102 126 58 234 105 240 105 11 0 104 -203 104
-225 0 -6 -60 -37 -132 -69 -521 -234 -666 -297 -684 -302 -20 -5 -36 31 -224
503 -111 279 -202 512 -203 517 -1 4 88 50 198 100 110 51 277 131 370 178 94
48 175 87 180 87 6 1 29 -41 53 -93z m-2517 -296 c85 -17 257 -48 382 -70 126
-21 230 -40 232 -42 2 -2 -3 -65 -12 -141 -15 -127 -18 -137 -37 -137 -12 1
-122 18 -246 39 -124 21 -226 38 -227 37 -2 -2 -14 -50 -26 -109 l-24 -106 51
-10 c28 -6 123 -22 211 -37 88 -14 162 -28 163 -29 5 -5 -28 -227 -36 -246 -6
-13 -32 -11 -227 22 -121 20 -222 35 -224 33 -2 -2 -23 -85 -46 -184 -24 -100
-45 -183 -47 -185 -4 -5 -347 81 -355 88 -3 3 57 256 133 562 132 527 140 556
160 551 11 -3 90 -19 175 -36z m1598 -146 c13 -74 20 -138 17 -141 -3 -4 -112
-21 -242 -39 -130 -19 -239 -36 -241 -38 -3 -3 -2 -48 2 -100 7 -91 8 -96 29
-91 52 10 407 57 409 54 4 -5 45 -263 43 -266 -1 -1 -102 -16 -226 -33 -124
-18 -225 -33 -226 -34 0 0 6 -88 14 -194 8 -106 13 -195 11 -196 -6 -6 -360
-28 -365 -23 -5 5 -74 1018 -74 1089 l0 46 63 7 c119 12 543 66 627 79 150 24
134 37 159 -120z"/>
<path d="M4928 9103 c-2 -5 -2 -52 0 -105 l4 -98 118 0 c116 0 119 1 139 26
40 51 20 147 -35 170 -35 15 -220 20 -226 7z"/>
<path d="M4944 8649 c3 -17 6 -67 6 -110 l0 -79 113 0 c85 0 118 4 134 15 43
30 42 137 -2 181 -23 23 -31 24 -141 24 l-116 0 6 -31z"/>
<path d="M3642 8839 c-41 -16 -89 -36 -108 -44 l-33 -14 50 -108 c28 -59 52
-109 53 -110 1 -2 49 16 105 39 93 37 105 45 118 76 31 74 -13 162 -92 185
-11 3 -52 -7 -93 -24z"/>
<path d="M2383 8057 c32 -83 133 -306 139 -304 11 4 158 131 158 137 -1 5
-272 170 -293 179 -6 2 -8 -3 -4 -12z"/>
<path d="M4830 7699 c-258 -16 -561 -82 -781 -169 -230 -91 -523 -262 -718
-419 -475 -382 -825 -974 -945 -1598 -29 -153 -49 -326 -41 -352 8 -25 91 -60
162 -67 85 -9 164 15 338 101 176 87 240 107 326 103 77 -4 93 -21 66 -71 -42
-77 -59 -90 -132 -98 -57 -6 -93 -19 -230 -88 -202 -100 -288 -125 -399 -118
-45 3 -91 9 -104 13 l-24 7 8 -109 c3 -60 11 -114 16 -121 16 -20 97 -27 167
-14 42 8 119 37 211 80 80 38 169 76 199 85 53 15 132 21 143 11 9 -9 -12
-119 -27 -141 -10 -15 -28 -23 -67 -27 -40 -4 -96 -27 -230 -96 -171 -87 -262
-121 -335 -121 l-31 0 15 -57 c8 -32 19 -75 24 -97 l10 -39 69 5 c60 5 86 14
231 87 139 70 174 83 228 88 l64 6 -6 -39 c-4 -21 -7 -56 -7 -76 0 -35 -2 -38
-27 -38 -40 -1 -125 -38 -225 -98 -105 -64 -165 -91 -221 -101 -42 -7 -42 -7
-39 -46 3 -55 30 -123 52 -135 46 -24 82 -12 217 72 123 77 170 95 239 90 17
-2 24 -12 33 -46 6 -25 11 -59 11 -75 0 -26 -4 -31 -23 -31 -50 0 -121 -31
-220 -93 -56 -36 -115 -70 -130 -76 l-27 -11 20 -52 c23 -62 71 -111 97 -101
10 4 59 31 109 60 54 32 119 60 161 71 66 17 69 19 63 42 -4 14 -10 49 -13 78
l-6 52 68 0 c82 0 147 30 260 118 73 57 74 58 92 132 25 97 83 216 203 414 52
87 99 174 102 193 12 63 -4 236 -36 398 -40 203 -47 316 -26 414 30 140 129
306 208 347 15 8 28 12 28 10 0 -3 -14 -26 -32 -52 -130 -193 -141 -496 -28
-817 40 -115 47 -185 26 -265 -21 -82 -42 -122 -146 -277 -48 -72 -102 -159
-119 -193 -87 -173 -80 -322 25 -529 30 -59 51 -110 47 -113 -5 -4 -61 -48
-125 -98 -198 -153 -311 -203 -382 -169 -28 13 -38 28 -61 86 l-27 71 -49 0
c-27 0 -68 -8 -91 -17 -55 -21 -178 -94 -178 -105 0 -13 102 -138 113 -138 5
0 45 18 89 40 100 50 152 53 190 13 32 -35 43 -70 28 -88 -6 -8 -45 -22 -87
-31 -44 -10 -85 -26 -101 -39 l-27 -23 73 -71 72 -70 66 30 c66 29 100 35 120
21 15 -10 64 -85 64 -97 0 -5 -23 -22 -50 -37 -28 -16 -50 -32 -50 -37 0 -22
193 -165 250 -186 11 -4 25 17 53 78 21 46 70 132 108 193 123 190 169 300
169 401 0 24 4 43 9 43 5 0 19 -26 31 -57 40 -105 15 -205 -86 -353 -97 -142
-118 -176 -140 -225 -13 -30 -26 -76 -30 -103 -6 -50 -6 -50 32 -76 22 -14 55
-32 75 -40 l35 -15 12 69 c16 93 44 152 142 300 120 180 154 256 158 352 6
127 -24 192 -197 413 -148 190 -188 281 -178 406 10 120 68 234 200 397 174
213 181 291 60 650 -55 166 -65 206 -70 287 -4 57 -1 118 6 157 28 143 119
322 196 385 39 32 101 70 92 57 -3 -5 -25 -39 -50 -75 -98 -146 -143 -310
-135 -493 6 -120 23 -178 105 -356 64 -137 77 -185 78 -285 0 -82 -3 -95 -32
-150 -17 -33 -75 -121 -128 -195 -124 -171 -162 -249 -175 -359 -21 -161 16
-251 180 -441 144 -168 179 -240 180 -371 0 -135 -22 -196 -142 -382 -39 -60
-84 -139 -101 -175 -29 -61 -32 -76 -32 -166 l0 -100 90 -28 c50 -15 90 -28
90 -28 0 0 0 53 0 117 0 110 2 123 31 190 18 40 68 132 111 205 103 172 134
249 141 353 8 134 -23 213 -138 355 -202 248 -225 291 -225 436 0 98 1 103 42
185 23 46 82 139 132 207 115 157 126 186 126 327 0 123 -5 141 -101 366 -72
168 -94 257 -94 379 0 206 81 390 223 501 27 22 51 38 54 36 2 -3 -25 -47 -60
-99 -74 -109 -101 -173 -118 -286 -23 -152 6 -276 132 -570 90 -210 109 -268
109 -331 0 -100 -39 -190 -153 -360 -104 -156 -139 -236 -145 -332 -8 -134 21
-197 176 -384 171 -206 215 -368 152 -556 -12 -35 -57 -129 -100 -209 -127
-233 -134 -254 -135 -395 0 -134 12 -173 63 -199 29 -15 152 -33 152 -23 0 4
-12 42 -26 84 -23 68 -26 89 -21 163 6 107 34 184 143 401 46 91 93 192 104
225 63 180 27 299 -164 539 -153 193 -180 244 -180 345 0 83 32 155 138 308
42 60 93 148 115 194 21 47 46 88 56 91 31 13 84 7 137 -14 71 -29 142 -27
253 5 49 14 104 26 121 26 33 0 64 -21 64 -43 0 -31 66 -143 145 -247 118
-154 140 -202 140 -306 0 -75 -3 -87 -42 -165 -25 -50 -86 -140 -152 -223 -60
-76 -124 -168 -143 -204 -31 -62 -33 -72 -33 -166 0 -83 4 -108 21 -141 147
-279 214 -420 233 -493 29 -108 30 -224 2 -312 -11 -35 -19 -65 -18 -66 1 -1
43 8 92 20 90 21 90 22 104 61 8 23 15 81 15 135 1 128 -30 222 -141 422 -118
213 -127 236 -127 338 0 134 43 224 217 448 117 151 145 202 153 280 13 117
-31 222 -185 442 -97 138 -119 184 -127 269 -9 85 23 195 110 378 117 247 130
291 130 453 1 196 -36 310 -144 454 -39 51 -46 65 -29 55 45 -23 164 -154 197
-216 105 -199 107 -359 6 -641 -111 -309 -126 -363 -128 -447 -1 -104 20 -150
154 -335 147 -203 185 -300 161 -417 -22 -112 -66 -187 -229 -393 -111 -141
-134 -191 -140 -302 -6 -126 21 -200 149 -408 121 -197 163 -330 143 -444 -6
-31 -8 -56 -5 -56 3 0 44 13 91 29 l85 28 -1 94 c0 120 -19 165 -147 366 -130
205 -150 270 -123 400 21 101 77 203 210 380 62 84 120 169 129 190 41 104 26
231 -44 367 -22 44 -87 148 -142 231 -56 82 -109 173 -119 200 -36 104 -21
193 71 397 77 173 95 260 88 422 -8 179 -61 340 -152 459 -41 54 -35 59 21 19
143 -104 244 -314 244 -507 0 -84 -27 -216 -86 -425 -93 -327 -90 -339 158
-695 102 -146 135 -238 125 -349 -9 -113 -66 -222 -202 -386 -92 -111 -133
-178 -155 -249 -44 -140 -16 -237 132 -461 106 -159 158 -275 158 -352 l0 -28
51 19 c28 11 62 27 76 36 23 15 25 22 19 61 -8 64 -53 154 -146 294 -115 173
-134 217 -135 310 0 57 5 84 21 115 12 22 25 39 30 38 5 -2 12 -38 15 -80 10
-119 35 -176 159 -368 43 -66 95 -156 116 -200 22 -44 40 -82 42 -84 3 -6 188
121 225 153 15 14 27 29 27 33 0 4 -21 21 -48 38 -71 44 -72 50 -20 117 l29
37 86 -30 c83 -28 87 -28 107 -11 41 35 116 114 116 123 0 12 -105 64 -158 78
-49 14 -53 31 -19 82 22 32 27 34 78 34 40 -1 76 -10 139 -38 l85 -38 34 38
c35 40 71 93 71 106 0 12 -260 137 -285 137 -30 0 -50 -25 -71 -93 -26 -83
-39 -92 -111 -77 -114 24 -245 102 -407 243 l-39 33 38 75 c71 136 83 164 95
223 30 148 -16 281 -190 542 -130 194 -144 227 -143 339 1 77 7 111 46 240 72
237 80 309 52 470 -15 84 -67 239 -106 318 -21 41 -16 46 21 20 79 -52 131
-138 176 -290 20 -67 27 -119 31 -214 6 -143 -8 -237 -57 -370 -22 -60 -30
-98 -30 -147 0 -124 30 -197 166 -405 121 -184 164 -280 164 -362 0 -28 12
-42 93 -110 113 -96 171 -125 251 -125 l59 0 -6 -52 c-3 -29 -9 -67 -12 -84
l-7 -31 52 -5 c37 -4 88 -24 183 -72 l132 -67 27 32 c32 38 58 90 58 116 0 13
-16 27 -47 42 -27 13 -87 47 -134 76 -85 52 -161 85 -199 85 -23 0 -24 5 -8
83 l12 59 51 -5 c35 -4 98 -30 210 -87 88 -44 170 -80 181 -80 30 0 52 29 79
105 l23 68 -78 27 c-43 15 -113 47 -156 72 -120 69 -197 106 -247 119 l-46 11
-6 53 c-8 63 0 95 24 95 49 0 149 -38 261 -100 226 -124 289 -128 333 -20 8
19 17 51 21 71 l6 36 -72 12 c-60 9 -109 29 -273 111 -138 70 -220 105 -265
114 l-65 13 -12 59 c-17 81 -17 82 15 89 52 11 166 -22 308 -89 177 -83 237
-100 326 -94 38 3 71 7 73 9 2 3 7 58 11 123 l7 119 -24 -7 c-13 -5 -64 -10
-114 -13 -108 -6 -147 5 -340 98 -158 75 -222 98 -299 106 l-59 6 -23 51 c-13
29 -25 63 -26 76 -3 23 2 26 50 34 71 12 162 -11 277 -71 200 -104 245 -124
303 -134 73 -13 146 0 209 37 51 29 50 27 28 216 -56 484 -200 865 -468 1238
-132 184 -326 387 -509 533 -109 86 -345 244 -458 305 -387 209 -920 314
-1430 281z m396 -470 c33 -4 95 -8 139 -8 44 -1 97 -5 119 -9 l39 -7 -49 -44
c-27 -25 -89 -82 -137 -127 l-88 -82 63 -151 c35 -83 65 -151 69 -151 3 0 48
25 100 56 192 115 326 172 442 189 l46 7 -49 -143 c-45 -130 -61 -209 -43
-209 4 0 50 18 102 39 126 52 291 87 291 62 0 -5 -23 -47 -51 -92 -94 -151
-155 -295 -174 -411 -3 -21 -10 -38 -14 -38 -4 0 -86 29 -181 65 -318 120
-503 157 -795 157 -317 0 -622 -65 -923 -196 l-99 -43 -27 96 c-31 113 -92
243 -169 361 -31 46 -53 88 -50 93 13 21 129 -5 266 -57 78 -30 143 -53 146
-51 12 13 -24 149 -63 237 -25 56 -43 105 -39 111 22 36 220 -43 445 -179 58
-35 111 -64 116 -64 9 0 132 290 132 312 0 7 -60 67 -132 133 l-132 120 94 6
c52 4 131 7 176 8 l81 1 36 78 c19 42 52 113 73 157 l37 80 72 -150 73 -150
58 -6z m-2304 -793 c19 -8 65 -47 102 -87 81 -85 137 -194 164 -315 l17 -80
130 47 c217 79 357 95 469 52 77 -30 76 -33 -27 -111 -108 -82 -292 -268 -356
-360 l-45 -63 -65 6 c-121 11 -242 -24 -521 -152 -98 -44 -110 -48 -185 -47
-79 0 -145 20 -145 44 0 5 45 78 101 162 259 390 313 527 312 781 0 75 3 137
7 137 4 0 23 -6 42 -14z m4283 -171 c1 -150 4 -178 24 -240 41 -123 106 -245
241 -449 72 -109 129 -204 126 -211 -7 -19 -93 -45 -148 -45 -64 0 -144 28
-287 99 -161 81 -203 93 -350 97 l-125 3 -64 88 c-86 117 -239 265 -345 333
-48 30 -85 60 -83 65 7 25 70 54 133 61 144 15 297 -17 452 -95 34 -18 64 -31
65 -29 1 2 17 53 35 113 38 128 73 193 143 271 53 57 141 116 168 111 13 -2
15 -29 15 -172z m-1995 -56 c78 -12 170 -54 228 -105 50 -42 102 -127 102
-166 l0 -27 -102 6 c-119 6 -230 -13 -280 -48 -50 -36 -73 -99 -72 -204 1
-148 43 -197 100 -115 l29 41 55 -8 c51 -7 125 -8 210 -1 31 3 37 -1 55 -34
18 -33 18 -43 8 -105 -56 -322 -260 -580 -476 -599 -73 -7 -182 15 -236 48
-197 118 -331 355 -331 585 0 70 3 86 20 103 24 24 27 24 76 4 38 -16 71 -16
186 2 24 4 48 1 68 -9 38 -19 56 -13 75 24 18 34 19 61 3 162 -11 71 -15 81
-44 104 -51 38 -115 53 -236 53 l-108 0 0 28 c0 33 47 111 93 154 53 49 142
89 252 112 42 8 263 5 325 -5z m-473 -423 c47 -22 83 -60 69 -73 -3 -4 -38 1
-78 10 -82 17 -119 14 -144 -14 -22 -24 -41 -24 -54 0 -16 30 -12 59 10 81 30
30 128 28 197 -4z m772 -4 c32 -23 36 -41 17 -67 -13 -19 -15 -19 -68 -2 -61
19 -159 23 -189 7 -15 -9 -21 -7 -26 6 -10 28 10 47 73 65 73 22 157 18 193
-9z"/>
<path d="M4888 6679 c-175 -134 -172 -137 142 -133 196 3 237 6 245 18 11 18
16 12 -105 104 -69 52 -148 102 -162 102 -2 0 -56 -41 -120 -91z"/>
<path d="M4948 5399 c-27 -11 -44 -41 -33 -59 3 -5 46 -10 94 -10 74 0 93 3
112 20 l24 20 -24 20 c-18 16 -37 20 -85 19 -33 0 -73 -5 -88 -10z"/>
<path d="M4810 5197 c0 -15 105 -120 137 -136 29 -15 133 -13 159 2 46 27 134
118 134 139 0 5 -97 8 -215 8 -168 0 -215 -3 -215 -13z"/>
<path d="M3205 2042 c-67 -23 -87 -38 -143 -109 -84 -104 -116 -215 -98 -337
14 -90 126 -176 231 -176 126 0 256 121 306 283 47 152 -23 302 -159 343 -58
18 -76 17 -137 -4z"/>
</g>
</svg>
